<svg width="300" height="55" viewBox="0 0 300 55" fill="none" xmlns="http://www.w3.org/2000/svg">
<g clipPath="url(#clip0_62_363)">
<path d="M27.6801 0H12.1265L10.0176 3.92857H27.6801C40.7293 3.92857 51.406 14.5357 51.406 27.5C51.406 40.4643 40.7293 51.0714 27.6801 51.0714C14.6309 51.0714 3.95431 40.4643 3.95431 27.5C3.95431 25.0119 4.34974 22.5238 5.1406 20.2976H9.62214C6.4587 28.1548 8.83128 37.1905 15.4218 42.5595C22.0123 47.9286 31.5026 48.3214 38.4886 43.6071C45.6063 38.8929 48.7698 29.9881 46.2654 21.869C43.761 13.75 36.2478 8.11905 27.6801 8.11905H7.64499L5.53603 12.0476H27.6801C34.6661 12.0476 40.7293 16.631 42.5747 23.3095C44.42 29.9881 41.5202 37.0595 35.5888 40.5952C29.6573 44.131 22.0123 43.3452 16.8717 38.5C11.8629 33.7857 10.5448 26.1905 13.8401 20.0357H18.9807C11.2039 29.2024 21.3533 42.4286 32.2935 37.4524C43.2337 32.4762 39.6749 16.1071 27.5483 16.1071H3.16344L1.05448 20.0357C0.26362 22.6548 0 25.0119 0 27.5C0 42.6905 12.3902 55 27.6801 55C42.9701 55 55.3603 42.6905 55.3603 27.5C55.3603 12.3095 42.9701 0 27.6801 0ZM27.6801 20.2976C31.7663 20.2976 35.0615 23.4405 35.0615 27.5C35.0615 31.5595 31.7663 34.8333 27.6801 34.7024C18.058 34.5714 18.058 20.4286 27.6801 20.2976ZM67.4868 28.0238C67.4868 20.4286 72.6274 15.0595 80.4042 15.0595C85.1494 15.0595 89.1037 17.1548 91.0808 20.6905L86.5993 23.8333C85.1494 21.6071 83.0404 20.5595 80.536 20.5595C76.3181 20.5595 73.5501 23.4405 73.5501 28.1548C73.5501 32.7381 76.3181 35.75 80.536 35.75C83.0404 35.75 85.1494 34.5714 86.5993 32.4762L91.0808 35.619C88.9719 39.1548 85.1494 41.119 80.4042 41.119C72.6274 40.9881 67.4868 35.619 67.4868 28.0238ZM92.0035 28.0238C92.0035 20.8214 97.1441 15.0595 105.053 15.0595C113.093 15.0595 118.102 20.9524 118.102 28.0238C118.102 35.0952 113.093 40.9881 105.053 40.9881C97.1441 40.9881 92.0035 35.2262 92.0035 28.0238ZM112.039 28.0238C112.039 23.5714 109.402 20.4286 105.053 20.4286C100.835 20.4286 98.0668 23.5714 98.0668 28.0238C98.0668 32.4762 100.703 35.619 105.053 35.619C109.271 35.619 112.039 32.4762 112.039 28.0238ZM156.986 15.7143L149.341 40.3333H142.882L137.478 22.9167L132.074 40.3333H125.615L118.234 15.7143H124.165L129.306 33.5238L134.842 15.7143H140.51L146.046 33.5238L151.186 15.7143H156.986ZM240.422 15.7143L232.777 40.3333H226.318L220.914 22.9167L215.51 40.3333H209.051L201.67 15.7143H207.601L212.742 33.3929L218.278 15.5833H223.945L229.482 33.3929L234.622 15.5833H240.422V15.7143ZM174.78 15.7143V21.2143C173.858 21.0833 172.935 20.9524 172.012 20.9524C167.663 20.9524 165.422 23.1786 165.422 28.2857V40.4643H159.49V15.7143H165.29V19.7738C166.476 16.8929 169.244 15.1905 172.54 15.1905C173.33 15.3214 174.121 15.4524 174.78 15.7143ZM199.429 15.7143V37.8452C199.429 46.0952 194.815 50.6786 186.643 50.6786C182.425 50.6786 178.471 49.369 176.23 47.2738L178.866 42.9524C180.975 44.6548 183.743 45.4405 186.248 45.4405C190.861 45.4405 193.497 42.8214 193.497 37.8452V35.75C192.047 38.5 189.016 40.0714 185.457 40.0714C180.185 40.0714 176.889 36.7976 176.889 30.7738V15.7143H182.821V29.3333C182.821 33.131 184.402 34.7024 187.434 34.7024C190.993 34.7024 193.366 32.4762 193.366 28.9405V15.7143H199.429ZM242.004 7.9881C242.004 5.89286 243.453 4.32143 245.826 4.32143C248.067 4.32143 249.517 5.89286 249.517 7.9881C249.517 10.0833 248.067 11.6548 245.826 11.6548C243.585 11.6548 242.004 10.0833 242.004 7.9881ZM242.794 15.7143H248.726V40.3333H242.794V15.7143ZM251.757 36.4048L254.921 32.7381C256.898 34.8333 259.93 36.1429 263.093 36.1429C265.861 36.1429 267.443 35.0952 267.443 33.5238C267.443 32.2143 266.52 31.4286 264.016 30.7738L259.93 29.8571C254.789 28.6786 252.548 26.3214 252.548 22.9167C252.548 18.3333 256.371 15.1905 262.829 15.1905C267.179 15.1905 270.87 16.631 272.979 19.119L269.815 22.9167C267.706 21.0833 265.202 20.1667 262.698 20.1667C259.93 20.1667 258.612 21.2143 258.612 22.6548C258.612 23.8333 259.402 24.4881 262.039 25.1429L266.257 26.1905C271.529 27.369 273.374 29.7262 273.374 33.131C273.374 37.9762 269.552 41.119 262.961 41.119C258.216 40.9881 253.998 39.1548 251.757 36.4048ZM299.868 29.8571H281.415C282.074 33.7857 284.71 35.881 288.664 35.881C291.432 35.881 293.805 34.8333 295.518 32.7381L299.077 36.2738C296.705 39.2857 293.014 40.9881 288.401 40.9881C280.492 40.9881 275.22 35.881 275.22 28.1548C275.22 20.5595 280.228 15.0595 287.742 15.0595C294.991 15.0595 299.868 20.0357 299.868 27.5C300 28.2857 299.868 29.0714 299.868 29.8571ZM281.415 25.7976H294.069C293.805 22.131 291.564 20.1667 288.005 20.1667C284.315 20.1667 281.942 22.2619 281.415 25.7976Z" fill="#0066F5"/>
</g>
<defs>
<clipPath id="clip0_62_363">
<rect width="300" height="55" fill="white"/>
</clipPath>
</defs>
</svg>
