<svg width="300" height="83" viewBox="0 0 300 83" fill="none" xmlns="http://www.w3.org/2000/svg">
<g clipPath="url(#clip0_62_373)">
<path d="M280.653 70.6274C280.653 64.9565 285.168 61.0901 290.327 61.0901C295.486 61.0901 300 64.9565 300 70.6274C300 76.2982 295.486 80.1646 290.327 80.1646C285.297 80.1646 280.653 76.2982 280.653 70.6274ZM290.456 69.5963C292.132 69.5963 292.519 68.6941 292.519 67.9208C292.519 67.0187 292.003 66.2454 290.456 66.2454H288.392V69.5963H290.456ZM288.263 71.014V76.2982H286.586V64.8277H290.843C293.293 64.8277 294.454 65.8587 294.454 68.0497C294.454 69.3385 293.551 70.3696 292.39 70.4985C293.422 70.6274 293.68 71.5295 293.938 73.0761C294.067 74.1072 294.325 75.9115 294.712 76.2982H292.648C292.132 75.2671 292.261 73.7205 291.874 72.4317C291.616 71.4006 291.101 71.1429 289.94 71.1429L288.263 71.014ZM298.194 70.6274C298.194 65.9876 294.97 62.6367 290.456 62.6367C285.942 62.6367 282.717 65.9876 282.717 70.6274C282.717 75.2671 285.942 78.618 290.456 78.618C294.841 78.618 298.194 75.2671 298.194 70.6274Z" fill="#FF6200"/>
<path d="M247.248 80.1645L236.156 67.6629L225.193 80.1645H201.978L224.678 54.6459L201.978 29.2561H225.967L237.188 41.6288L247.893 29.2561H270.98L248.409 54.6459L271.367 80.1645H247.248Z" fill="#FF6200"/>
<path d="M157.481 80.1646V0H201.978V17.9146H176.311V29.2562H201.978V46.3975H176.311V62.25H201.978V80.1646H157.481Z" fill="#FF6200"/>
<path d="M127.3 67.9208C120.335 67.9208 116.079 61.4767 116.079 54.7748C116.079 47.5574 119.819 40.7267 127.3 40.7267C135.039 40.7267 138.134 47.6863 138.134 54.7748C138.134 61.6056 134.91 67.9208 127.3 67.9208ZM60.6191 46.6553C61.7799 41.6289 65.7782 38.278 70.6793 38.278C76.0963 38.278 79.8366 41.5 80.8684 46.6553H60.6191ZM138.65 0V32.736H138.392C134.265 27.9674 128.977 26.2919 123.044 26.2919C110.662 26.2919 101.376 34.6693 98.1513 45.7531C94.411 33.5093 84.8667 26.0342 70.5503 26.0342C58.9424 26.0342 49.914 31.1894 45.1419 39.6956V29.2562H21.2812V17.9146H47.3345V0H0V80.1646H21.2812V46.3975H42.5623C41.9174 48.8463 41.5305 51.5528 41.5305 54.2593C41.5305 71.014 54.2992 82.7422 70.6793 82.7422C84.3508 82.7422 93.3792 76.2981 98.2803 64.5699H79.9656C77.515 68.0497 75.5804 69.0807 70.6793 69.0807C65.0043 69.0807 59.9742 64.0543 59.9742 58.1258H97.1195C98.6672 71.4006 109.114 82.8711 123.302 82.8711C129.364 82.8711 135.039 79.9068 138.521 74.7515H138.779V79.9068H157.61V0H138.65Z" fill="#4D148C"/>
</g>
<defs>
<clipPath id="clip0_62_373">
<rect width="300" height="83" fill="white"/>
</clipPath>
</defs>
</svg>
