<svg width="300" height="47" viewBox="0 0 300 47" fill="none" xmlns="http://www.w3.org/2000/svg">
<g clipPath="url(#clip0_62_346)">
<path d="M97.0656 10.9788H91.7967V37.9055H97.0656V10.9788Z" fill="#2A3362"/>
<path d="M117.487 28.356C117.487 32.0588 115.065 33.7479 111.858 33.7479C108.651 33.7479 106.491 32.0913 106.491 28.5509V18.9365H101.222V29.7527C101.222 35.1445 104.625 38.2952 110.287 38.2952C113.854 38.2952 115.818 36.996 117.159 35.5343H117.454L117.912 37.9379H122.756V18.9365H117.487V28.356Z" fill="#2A3362"/>
<path d="M169.194 34.17C165.332 34.17 163.172 32.416 162.812 29.8825H179.535C179.601 29.3628 179.666 28.8106 179.633 28.2909C179.601 21.4699 174.397 18.5791 168.834 18.5791C162.387 18.5791 157.511 22.4119 157.511 28.5832C157.511 34.4623 162.158 38.2951 169.161 38.2951C175.019 38.2951 178.913 35.7291 179.699 31.7664H174.495C173.906 33.3255 172.041 34.17 169.194 34.17ZM168.867 22.7042C172.237 22.7042 174.168 24.1983 174.495 26.2771H162.943C163.434 24.2633 165.398 22.7042 168.867 22.7042Z" fill="#2A3362"/>
<path d="M188.633 21.6649H188.306L187.815 18.9365H183.037V37.9054H188.306V29.7527C188.306 26.0823 190.433 24.036 194.426 24.036C195.146 24.036 195.866 24.101 196.586 24.2309V18.9365H195.866C192.298 18.9365 190.139 19.6836 188.633 21.6649Z" fill="#2A3362"/>
<path d="M222.439 31.9939H222.145L217.628 20.1383H212.196L207.778 31.9614H207.418L203.229 18.9365H197.993L204.44 37.9054H210.167L214.749 25.8225H215.076L219.592 37.9054H225.352L231.799 18.9365H226.563L222.439 31.9939Z" fill="#2A3362"/>
<path d="M252.776 32.3835V26.0497C252.776 20.8853 248.391 18.5791 242.926 18.5791C237.133 18.5791 233.501 21.3075 233.01 25.4001H238.279C238.671 23.6137 240.177 22.6392 242.926 22.6392C245.675 22.6392 247.507 23.6786 247.507 25.7574V26.2446L238.9 26.8942C234.941 27.1866 232.028 28.9405 232.028 32.6759C232.028 36.5086 235.366 38.3275 240.242 38.3275C244.202 38.3275 246.591 37.2232 248.064 35.5991H248.326C249.144 37.4506 250.845 37.9703 252.645 37.9703H254.871V34.105H254.38C253.3 34.0401 252.776 33.5204 252.776 32.3835ZM247.507 30.3697C247.507 33.358 243.907 34.3649 240.831 34.3649C238.737 34.3649 237.362 33.8452 237.362 32.3835C237.362 31.0843 238.54 30.4671 240.308 30.3047L247.54 29.785L247.507 30.3697Z" fill="#2A3362"/>
<path d="M272.281 18.9365L266.128 32.676H265.801L259.551 18.9365H253.856L262.758 37.9054H269.074L277.943 18.9365H272.281Z" fill="#2A3362"/>
<path d="M294.797 31.7664C294.142 33.3255 292.277 34.17 289.462 34.17C285.601 34.17 283.441 32.416 283.081 29.8825H299.804C299.869 29.3628 299.935 28.8106 299.902 28.2909C299.869 21.4699 294.666 18.5791 289.102 18.5791C282.655 18.5791 277.812 22.4119 277.812 28.5832C277.812 34.4623 282.459 38.2951 289.462 38.2951C295.32 38.2951 299.215 35.7291 300 31.7664H294.797ZM289.102 22.7042C292.473 22.7042 294.404 24.1983 294.731 26.2771H283.179C283.67 24.2633 285.601 22.7042 289.102 22.7042Z" fill="#2A3362"/>
<path d="M83.2551 17.5399C83.2551 15.8834 84.4333 15.1688 85.9714 15.1688C86.6914 15.1688 87.3786 15.2663 88.0659 15.4611L88.9495 11.6609C87.6732 11.2061 86.3314 10.9788 84.9896 10.9788C81.0952 10.9788 77.9535 13.0251 77.9535 17.2801V18.9366H73.4046V23.0942H77.9535V37.9055H83.2551V23.0942H89.2113V18.9366H83.2551V17.5399Z" fill="#2A3362"/>
<path d="M134.439 13.6096H129.53L129.268 18.969H125.112V23.1265H129.17V32.4811C129.17 35.6642 130.806 38.3277 135.715 38.3277C136.991 38.3277 138.268 38.1977 139.511 37.9054V33.9102C138.791 34.0726 138.071 34.1701 137.319 34.1701C134.701 34.1701 134.439 32.676 134.439 31.5391V23.0941H139.675V18.9365H134.439V13.6096Z" fill="#2A3362"/>
<path d="M150.998 13.6096H146.122L145.86 18.969H141.704V23.1265H145.762V32.4811C145.762 35.6642 147.398 38.3277 152.307 38.3277C153.583 38.3277 154.827 38.1652 156.071 37.9054V33.9102C155.351 34.0726 154.631 34.1701 153.878 34.1701C151.26 34.1701 150.998 32.676 150.998 31.5391V23.0941H156.234V18.9365H150.965V13.6096H150.998Z" fill="#2A3362"/>
<path d="M0 10.2641C0 7.21088 0.883604 4.6124 2.78172 2.76099L6.05433 6.00909C2.42173 9.61448 5.59616 20.8204 15.9703 31.1169C26.3445 41.4134 37.635 44.564 41.2676 40.9586L44.5402 44.2067C38.3877 50.3132 24.4137 45.9607 12.6977 34.365C4.58165 26.2772 0 17.1501 0 10.2641Z" fill="#009A46"/>
<path d="M20.6501 47.0001C17.5739 47.0001 14.9558 46.1231 13.0904 44.2392L16.363 40.9911C19.9956 44.5965 31.2861 41.4458 41.6603 31.1494C52.0345 20.8529 55.2089 9.64695 51.5763 6.04156L54.8489 2.79346C61.0014 8.89988 56.6161 22.7693 44.9329 34.3975C36.7841 42.4528 27.5554 47.0001 20.6501 47.0001Z" fill="#FF5805"/>
<path d="M45.9802 29.7526C43.9839 24.0684 39.9258 17.9945 34.5588 12.6676C22.8428 1.03942 8.86878 -3.28056 2.71627 2.79339C2.29083 3.24812 2.68355 4.32 3.56715 5.19698C4.45076 6.07397 5.56344 6.46374 5.98888 6.04149C9.62148 2.4361 20.912 5.58675 31.2861 15.8832C36.1951 20.7554 39.8604 26.2122 41.6276 31.2467C43.1657 35.6642 43.0348 39.2371 41.2349 41.0235C40.8094 41.4458 41.1694 42.5176 42.0858 43.4271C43.0021 44.3366 44.082 44.6939 44.5075 44.2716C47.6492 41.121 48.1728 35.9565 45.9802 29.7526Z" fill="#F5AFCB"/>
<path d="M54.8162 2.79346C51.6745 -0.324717 46.471 -0.844413 40.2203 1.29933C34.4933 3.28067 28.3735 7.30832 23.0064 12.6352C11.2905 24.2634 6.93792 38.1328 13.0904 44.2392C13.5159 44.6615 14.6286 44.3042 15.5122 43.3947C16.3958 42.4852 16.7885 41.4134 16.363 40.9911C12.7304 37.3857 15.9049 26.1798 26.279 15.8833C31.188 11.0112 36.6859 7.37328 41.7257 5.6193C46.1765 4.0927 49.7764 4.22262 51.5763 6.00908C52.0017 6.43133 53.0817 6.07404 53.998 5.16457C54.9144 4.2551 55.2743 3.24819 54.8162 2.79346Z" fill="#FF9B00"/>
</g>
<defs>
<clipPath id="clip0_62_346">
<rect width="300" height="47" fill="white"/>
</clipPath>
</defs>
</svg>
