<svg width="300" height="94" viewBox="0 0 300 94" fill="none" xmlns="http://www.w3.org/2000/svg">
<g clipPath="url(#clip0_62_336)">
<path d="M37.5268 33.5409V43.5818H61.7584C61.1151 49.1364 59.1851 53.4091 56.183 56.1864C52.752 59.6045 47.1766 63.45 37.5268 63.45C22.7305 63.45 11.1508 51.4864 11.1508 36.7455C11.1508 22.0045 22.5161 10.0409 37.5268 10.0409C45.461 10.0409 51.4653 13.2455 55.7541 17.3045L62.8306 10.2545C56.8263 4.48636 48.6776 0 37.5268 0C17.1551 0 0 16.45 0 36.7455C0 57.0409 17.1551 73.4909 37.5268 73.4909C48.4632 73.4909 56.8263 69.8591 63.2595 63.2364C69.9071 56.6136 72.0515 47.2136 72.0515 39.7364C72.0515 37.3864 71.837 35.25 71.6226 33.5409H37.5268Z" fill="#4285F4"/>
<path d="M102.073 25.209C88.9921 25.209 78.0558 35.2499 78.0558 48.9226C78.0558 62.5953 88.7777 72.6363 102.073 72.6363C115.368 72.6363 126.09 62.809 126.09 49.1363C126.09 35.2499 115.368 25.209 102.073 25.209ZM102.073 63.4499C94.782 63.4499 88.5633 57.4681 88.5633 49.1363C88.5633 40.5908 94.782 34.8226 102.073 34.8226C109.364 34.8226 115.583 40.5908 115.583 49.1363C115.583 57.4681 109.364 63.4499 102.073 63.4499Z" fill="#EA4335"/>
<path d="M219.371 30.5499H218.942C216.583 27.7726 212.08 25.209 206.29 25.209C194.282 25.209 183.989 35.4635 183.989 48.9226C183.989 62.1681 194.282 72.6363 206.29 72.6363C212.08 72.6363 216.583 70.0726 218.942 67.2953H219.371V70.7135C219.371 79.6863 214.439 84.5999 206.719 84.5999C200.286 84.5999 196.426 80.1135 194.711 76.0544L185.704 79.8999C188.277 86.0953 195.354 93.9999 206.934 93.9999C219.157 93.9999 229.664 86.7363 229.664 69.2181V26.4908H219.8V30.5499H219.371ZM207.362 63.4499C200.071 63.4499 194.711 57.2544 194.711 49.1363C194.711 40.8044 200.286 34.8226 207.362 34.8226C214.439 34.8226 220.014 41.0181 220.014 49.3499C220.229 57.4681 214.653 63.4499 207.362 63.4499Z" fill="#4285F4"/>
<path d="M155.468 25.209C142.387 25.209 131.451 35.2499 131.451 48.9226C131.451 62.5953 142.173 72.6363 155.468 72.6363C168.763 72.6363 179.485 62.809 179.485 49.1363C179.485 35.2499 168.763 25.209 155.468 25.209ZM155.468 63.4499C148.177 63.4499 141.959 57.4681 141.959 49.1363C141.959 40.5908 148.177 34.8226 155.468 34.8226C162.759 34.8226 168.978 40.5908 168.978 49.1363C168.978 57.4681 162.759 63.4499 155.468 63.4499Z" fill="#FBBC05"/>
<path d="M237.598 1.06812H247.891V72.8499H237.598V1.06812Z" fill="#34A853"/>
<path d="M279.628 63.4499C274.267 63.4499 270.622 61.0999 268.049 56.1863L300 43.1544L298.928 40.3772C296.998 35.0363 290.779 25.209 278.556 25.209C266.333 25.209 256.04 34.8226 256.04 48.9226C256.04 62.1681 266.119 72.6363 279.628 72.6363C290.565 72.6363 296.783 66.0135 299.571 62.1681L291.422 56.8272C288.635 60.8863 284.989 63.4499 279.628 63.4499ZM278.985 34.1817C283.274 34.1817 286.919 36.3181 287.991 39.309L266.548 48.2817C266.333 38.4544 273.624 34.1817 278.985 34.1817Z" fill="#EA4335"/>
</g>
<defs>
<clipPath id="clip0_62_336">
<rect width="300" height="94" fill="white"/>
</clipPath>
</defs>
</svg>
