<svg width="300" height="150" viewBox="0 0 300 150" fill="none" xmlns="http://www.w3.org/2000/svg">
<g clipPath="url(#clip0_62_344)">
<path d="M149.997 0C67.1564 0 0 33.5815 0 75C0 116.419 67.1564 150 149.997 150C232.838 150 300 116.419 300 75C300 33.5815 232.833 0 149.997 0ZM149.997 138.162C73.6969 138.162 11.8427 109.883 11.8427 75C11.8427 40.1168 73.6969 11.8429 149.997 11.8429C226.298 11.8429 288.157 40.1168 288.157 75C288.157 109.883 226.303 138.162 149.997 138.162ZM131.085 61.8447V50.0018H173.418V61.8447H158.178V100.014H146.32V61.8447H131.085ZM224.483 50.0018V100.014H212.64L191.161 70.248V100.014H179.324V50.0018H191.161L212.64 79.7679V50.0018H224.483ZM75.168 100.014V50.0018H87.0107L100.166 70.2374L113.321 50.0018H125.164V100.014H113.321V71.7191L104.325 85.5253H95.9907L86.9949 71.7191V100.014H75.168Z" fill="#1D1D1B"/>
</g>
<defs>
<clipPath id="clip0_62_344">
<rect width="300" height="150" fill="white"/>
</clipPath>
</defs>
</svg>
