<svg width="298" height="119" viewBox="0 0 298 119" fill="none" xmlns="http://www.w3.org/2000/svg">
<path fill-rule="evenodd" clip-rule="evenodd" d="M4.98615 56.6345L68.5831 98.5038C73.4886 101.737 74.8283 108.349 71.6745 113.337C68.4353 118.46 61.7781 119.591 57.0016 116.462L7.99999 84.212C7.99999 84.212 1.85392 80.6412 0.446733 73.9867C-1.40284 65.2401 4.18902 57.6624 4.91042 56.7306L4.98615 56.6345ZM61.0111 24.0083C66.7813 24.0071 71.4589 28.737 71.4589 34.5702C71.4589 40.4034 66.7813 45.132 61.0111 45.132C58.5726 45.132 56.7223 44.3284 54.9591 43.1806L41.8806 34.5703L54.9591 25.9596C56.7052 24.8104 58.4953 24.0088 61.0111 24.0083Z" fill="#38D200"/>
<path fill-rule="evenodd" clip-rule="evenodd" d="M10.4479 97.0473C12.8865 97.0473 14.7367 97.8511 16.4997 98.9987L29.5782 107.609L16.4997 116.22C14.7536 117.369 12.9637 118.171 10.4479 118.171C4.67765 118.172 0 113.442 0 107.609C0 101.776 4.67765 97.0473 10.4479 97.0473ZM52.0416 4.87829C55.2332 9.84159 53.8403 16.4807 48.9304 19.7071L26.352 34.5703L64.8227 59.8978C64.8227 59.8978 64.964 59.9796 65.2103 60.1397L65.5538 60.3691C67.3701 61.6128 72.0201 65.2634 73.1117 70.6792C75.0159 80.1247 68.5847 87.9062 68.5847 87.9062L10.5867 49.723C10.5867 49.723 3.08038 45.1412 3.08038 34.5441C3.08038 23.9823 10.5837 19.4587 10.5837 19.4587L37.3727 1.73306C42.2828 -1.49334 48.8501 -0.0850162 52.0416 4.87829Z" fill="#0473EA"/>
<path fill-rule="evenodd" clip-rule="evenodd" d="M294.071 57.1072L297.915 59.4807V87.8666H294.071V83.8563C292.196 86.6522 289.196 88.3581 285.586 88.3581C278.836 88.3581 274.008 83.2877 274.008 76.3692C274.008 69.3085 278.836 64.1432 285.586 64.1432C289.196 64.1432 292.196 65.8968 294.071 68.7399V57.1072ZM196.115 57.0964L199.912 59.4688V80.1024C199.912 83.3721 201.881 84.6515 204.366 84.6515C206.241 84.6515 208.115 84.1303 209.756 82.9456V86.6893C208.163 87.874 205.959 88.3477 204.037 88.3477C199.115 88.3477 196.115 86.1204 196.115 79.818V57.0964ZM260.403 64.0799C267.059 64.0799 271.418 69.0555 271.418 75.7372C271.418 76.4006 271.372 77.0639 271.278 77.6801H253.043C253.606 81.8976 256.887 84.6934 261.481 84.6934C264.434 84.6934 267.293 83.8404 269.731 82.0871V85.7832C267.247 87.4893 264.434 88.2948 261.481 88.2948C254.215 88.2948 249.012 83.556 249.012 76.4006C249.012 69.3872 253.418 64.0799 260.403 64.0799ZM162.809 64.0798C166.418 64.0798 169.371 65.7859 171.293 68.5818V64.5063H175.137V87.8682H171.293V83.8877C169.371 86.6363 166.418 88.2947 162.809 88.2947C156.059 88.2947 151.231 83.2242 151.231 76.3058C151.231 69.2451 156.059 64.0798 162.809 64.0798ZM115.136 64.0798C117.902 64.0798 120.48 64.8856 122.543 66.4492V70.7615C120.714 68.7713 118.183 67.7287 115.37 67.7287C110.449 67.7287 106.98 71.188 106.98 76.1637C106.98 81.1393 110.496 84.6459 115.418 84.6459C118.183 84.6459 120.762 83.8877 122.777 82.1344V86.0675C120.527 87.6313 117.855 88.2947 115.043 88.2947C107.965 88.2947 103.043 83.3191 103.043 76.1637C103.043 69.0555 108.105 64.0798 115.136 64.0798ZM221.309 64.0799C227.965 64.0799 232.324 69.0555 232.324 75.7372C232.324 76.4006 232.278 77.0639 232.184 77.6801H213.949C214.512 81.8976 217.793 84.6934 222.387 84.6934C225.34 84.6934 228.199 83.8404 230.637 82.0871V85.7832C228.152 87.4893 225.34 88.2948 222.387 88.2948C215.121 88.2948 209.918 83.556 209.918 76.4006C209.918 69.3872 214.324 64.0799 221.309 64.0799ZM126.996 57.1008L130.792 59.4734L130.793 68.4869C132.527 65.7859 135.293 64.0798 138.808 64.0798C144.621 64.0798 147.715 68.3921 147.715 74.126V87.8682H143.871V74.7894C143.871 70.2402 141.902 67.8236 137.871 67.8236C133.605 67.8236 130.793 71.5197 130.793 76.1637V87.8682H126.996V57.1008ZM193.277 64.0798V68.4869C188.684 67.8236 184.84 70.9512 184.84 76.7322V87.8682H181.043V64.5063H184.84V69.482C186.668 66.0227 189.621 64.0798 193.277 64.0798ZM248.73 64.0798V68.4869C244.137 67.8236 240.293 70.9512 240.293 76.7322V87.8682H236.496V64.5063H240.293V69.482C242.121 66.0227 245.074 64.0798 248.73 64.0798ZM285.962 67.7921C281.274 67.7921 277.946 71.3935 277.946 76.3219C277.946 81.1552 281.274 84.7093 285.962 84.7093C290.696 84.7093 294.071 81.1552 294.071 76.3219C294.071 71.3935 290.696 67.7921 285.962 67.7921ZM163.184 67.7287C158.496 67.7287 155.168 71.3302 155.168 76.2585C155.168 81.0918 158.496 84.6459 163.184 84.6459C167.918 84.6459 171.293 81.0918 171.293 76.2585C171.293 71.3302 167.918 67.7287 163.184 67.7287ZM221.355 67.634C217.137 67.634 214.606 70.6194 213.996 74.5525H228.293C227.918 70.5719 225.434 67.634 221.355 67.634ZM260.449 67.634C256.231 67.634 253.7 70.6194 253.09 74.5525H267.387C267.012 70.5719 264.528 67.634 260.449 67.634ZM202.862 64.1735C203.837 63.5472 205.085 63.5582 206.05 64.2015L209.874 66.7744L206.098 69.2226C205.136 69.8465 203.902 69.8481 202.938 69.2267L202.858 69.1747C201.048 68.0083 201.051 65.3368 202.862 64.1735ZM149.309 29.917C152.918 29.917 155.872 31.623 157.793 34.419V30.3435H161.637V53.7054H157.793V49.7249C155.872 52.4734 152.918 54.1319 149.309 54.1319C142.558 54.1319 137.73 49.0614 137.73 42.1429C137.73 35.0823 142.558 29.917 149.309 29.917ZM126.715 22.8586V45.8866C126.715 49.1563 128.684 50.4357 131.168 50.4357C133.043 50.4357 134.918 49.9145 136.559 48.7298V52.4735C134.965 53.6582 132.762 54.1319 130.84 54.1319C125.918 54.1319 122.918 51.9046 122.918 45.6022V25.2335L126.715 22.8586ZM285.999 22.8603V53.7054H282.155V49.6301C280.28 52.426 277.28 54.1319 273.67 54.1319C266.92 54.1319 262.092 49.0614 262.092 42.1429C262.092 35.0823 266.92 29.917 273.67 29.917C277.28 29.917 280.28 31.6706 282.155 34.5137V25.2322L285.999 22.8603ZM231.388 29.917C234.997 29.917 237.95 31.623 239.872 34.419V30.3435H243.716V53.7054H239.872V49.7249C237.95 52.4734 234.997 54.1319 231.388 54.1319C224.638 54.1319 219.81 49.0614 219.81 42.1429C219.81 35.0823 224.638 29.917 231.388 29.917ZM111.34 29.917C114.058 29.917 116.589 30.6752 118.371 32.0496V36.0773C116.262 34.182 113.683 33.0922 111.386 33.0922C108.949 33.0922 107.214 34.2293 107.214 36.1249C107.214 37.5465 107.871 38.3995 109.699 39.1101L115.184 41.3375C118.136 42.6169 119.496 44.4176 119.496 46.929C119.496 51.3836 115.933 54.1319 110.918 54.1319C107.871 54.1319 105.105 53.279 103.089 51.7625V47.5926C105.527 49.9144 108.246 50.9571 110.965 50.9571C113.683 50.9571 115.652 49.7724 115.652 47.6399C115.652 46.3604 114.996 45.3653 113.261 44.6544L107.777 42.4273C104.964 41.1954 103.418 39.5842 103.418 36.5514C103.418 32.4761 106.652 29.917 111.34 29.917ZM215.684 22.8603V53.7054H211.84V49.6301C209.966 52.426 206.966 54.1319 203.356 54.1319C196.606 54.1319 191.778 49.0614 191.778 42.1429C191.778 35.0823 196.606 29.917 203.356 29.917C206.966 29.917 209.966 31.6706 211.84 34.5137V25.2322L215.684 22.8603ZM261.856 29.917V34.3241C257.263 33.6607 253.419 36.7883 253.419 42.5694V53.7054H249.622V30.3435H253.419V35.3192C255.247 31.8599 258.2 29.917 261.856 29.917ZM179.355 29.917C185.168 29.917 188.262 34.2293 188.262 39.9632V53.7054H184.418V40.6265C184.418 36.0774 182.45 33.6607 178.418 33.6607C174.152 33.6607 171.34 37.3569 171.34 42.0009V53.7054H167.543V30.3435H171.34V34.3241C173.074 31.623 175.84 29.917 179.355 29.917ZM149.684 33.5659C144.996 33.5659 141.668 37.1673 141.668 42.0957C141.668 46.929 144.996 50.4831 149.684 50.4831C154.418 50.4831 157.793 46.929 157.793 42.0957C157.793 37.1673 154.418 33.5659 149.684 33.5659ZM203.731 33.5659C199.044 33.5659 195.715 37.1673 195.715 42.0957C195.715 46.929 199.044 50.4831 203.731 50.4831C208.466 50.4831 211.84 46.929 211.84 42.0957C211.84 37.1673 208.466 33.5659 203.731 33.5659ZM274.046 33.5659C269.358 33.5659 266.03 37.1673 266.03 42.0957C266.03 46.929 269.358 50.4831 274.046 50.4831C278.78 50.4831 282.155 46.929 282.155 42.0957C282.155 37.1673 278.78 33.5659 274.046 33.5659ZM231.763 33.5659C227.075 33.5659 223.747 37.1673 223.747 42.0957C223.747 46.929 227.075 50.4831 231.763 50.4831C236.497 50.4831 239.872 46.929 239.872 42.0957C239.872 37.1673 236.497 33.5659 231.763 33.5659ZM132.008 30.3011C132.968 29.675 134.202 29.6704 135.167 30.2895L135.248 30.3414C137.06 31.5034 137.064 34.1749 135.255 35.3425C134.282 35.9712 133.033 35.9632 132.068 35.3221L128.237 32.7584L132.008 30.3011Z" fill="#525355"/>
</svg>
