<svg width="32" height="23" viewBox="0 0 32 23" fill="none" xmlns="http://www.w3.org/2000/svg">
<path id="Vector" d="M2.28571 0.0712891H13.7143C14.3205 0.0712891 14.9019 0.312105 15.3305 0.740759C15.7592 1.16941 16 1.75079 16 2.357C16 2.96321 15.7592 3.54459 15.3305 3.97325C14.9019 4.4019 14.3205 4.64272 13.7143 4.64272H2.28571C1.67951 4.64272 1.09812 4.4019 0.66947 3.97325C0.240816 3.54459 0 2.96321 0 2.357C0 1.75079 0.240816 1.16941 0.66947 0.740759C1.09812 0.312105 1.67951 0.0712891 2.28571 0.0712891ZM18.2857 18.357H29.7143C30.3205 18.357 30.9019 18.5978 31.3305 19.0265C31.7592 19.4551 32 20.0365 32 20.6427C32 21.2489 31.7592 21.8303 31.3305 22.259C30.9019 22.6876 30.3205 22.9284 29.7143 22.9284H18.2857C17.6795 22.9284 17.0981 22.6876 16.6695 22.259C16.2408 21.8303 16 21.2489 16 20.6427C16 20.0365 16.2408 19.4551 16.6695 19.0265C17.0981 18.5978 17.6795 18.357 18.2857 18.357ZM2.28571 9.21415H29.7143C30.3205 9.21415 30.9019 9.45496 31.3305 9.88362C31.7592 10.3123 32 10.8937 32 11.4999C32 12.1061 31.7592 12.6874 31.3305 13.1161C30.9019 13.5448 30.3205 13.7856 29.7143 13.7856H2.28571C1.67951 13.7856 1.09812 13.5448 0.66947 13.1161C0.240816 12.6874 0 12.1061 0 11.4999C0 10.8937 0.240816 10.3123 0.66947 9.88362C1.09812 9.45496 1.67951 9.21415 2.28571 9.21415Z" fill="#5F6368"/>
</svg>
